<svg width="29" height="29" viewBox="0 0 29 29" fill="none" xmlns="http://www.w3.org/2000/svg">
<path d="M11.7036 24.3075H9.00276C8.76399 24.3075 8.535 24.2127 8.36616 24.0438C8.19733 23.875 8.10248 23.646 8.10248 23.4072V5.40167C8.10248 5.1629 8.19733 4.93391 8.36616 4.76508C8.535 4.59624 8.76399 4.50139 9.00276 4.50139H11.7036C11.9424 4.50139 12.1713 4.59624 12.3402 4.76508C12.509 4.93391 12.6039 5.1629 12.6039 5.40167V23.4072C12.6039 23.646 12.509 23.875 12.3402 24.0438C12.1713 24.2127 11.9424 24.3075 11.7036 24.3075Z" fill="#E1E1E6"/>
<path d="M19.8061 24.3075H17.1053C16.8665 24.3075 16.6375 24.2127 16.4687 24.0438C16.2998 23.875 16.205 23.646 16.205 23.4072V5.40167C16.205 5.1629 16.2998 4.93391 16.4687 4.76508C16.6375 4.59624 16.8665 4.50139 17.1053 4.50139H19.8061C20.0449 4.50139 20.2739 4.59624 20.4427 4.76508C20.6115 4.93391 20.7064 5.1629 20.7064 5.40167V23.4072C20.7064 23.646 20.6115 23.875 20.4427 24.0438C20.2739 24.2127 20.0449 24.3075 19.8061 24.3075Z" fill="#E1E1E6"/>
</svg>
